<svg width="18" height="18" viewBox="0 0 18 18" fill="none" xmlns="http://www.w3.org/2000/svg">
<g clip-path="url(#clip0_8_196)">
<path d="M17.7805 0.219956C17.6398 0.0793528 17.4491 0.000366211 17.2502 0.000366211C17.0513 0.000366211 16.8606 0.0793528 16.72 0.219956L9.00021 7.93971L1.28046 0.219956C1.13981 0.0793528 0.949079 0.000366211 0.750206 0.000366211C0.551333 0.000366211 0.360602 0.0793528 0.219956 0.219956C0.0793528 0.360602 0.000366211 0.551333 0.000366211 0.750206C0.000366211 0.949079 0.0793528 1.13981 0.219956 1.28046L7.93971 9.00021L0.219956 16.72C0.0793528 16.8606 0.000366211 17.0513 0.000366211 17.2502C0.000366211 17.4491 0.0793528 17.6398 0.219956 17.7805C0.360602 17.9211 0.551333 18 0.750206 18C0.949079 18 1.13981 17.9211 1.28046 17.7805L9.00021 10.0607L16.72 17.7805C16.8606 17.9211 17.0513 18 17.2502 18C17.4491 18 17.6398 17.9211 17.7805 17.7805C17.9211 17.6398 18 17.4491 18 17.2502C18 17.0513 17.9211 16.8606 17.7805 16.72L10.0607 9.00021L17.7805 1.28046C17.9211 1.13981 18 0.949079 18 0.750206C18 0.551333 17.9211 0.360602 17.7805 0.219956Z" fill="white" fill-opacity="0.5"/>
</g>
<defs>
<clipPath id="clip0_8_196">
<rect width="18" height="18" fill="white"/>
</clipPath>
</defs>
</svg>
