<svg width="225" height="134" viewBox="0 0 225 134" fill="none" xmlns="http://www.w3.org/2000/svg">
<g clip-path="url(#clip0_8_683)">
<path d="M63.4059 48.6663C63.348 50.9057 63.6254 53.1412 64.2291 55.2992C64.8939 57.144 65.6942 58.9376 66.6237 60.6652C66.9566 61.1762 67.1381 61.7703 67.1476 62.3793C67.0994 62.8359 66.9461 63.2752 66.6994 63.663C66.4528 64.0508 66.1196 64.3766 65.7257 64.6151L61.0113 67.7453C60.4425 68.1535 59.7661 68.3867 59.0656 68.416C58.2132 68.3578 57.413 67.9859 56.8206 67.3726C55.8123 66.2935 54.9102 65.1205 54.1266 63.8699C53.3783 62.6029 52.63 61.1869 51.8068 59.4728C45.9699 66.3293 38.6362 69.7575 29.806 69.7575C23.52 69.7575 18.5062 67.9689 14.8394 64.3916C11.1726 60.8142 9.30176 56.0445 9.30176 50.0823C9.30176 43.7475 11.5467 38.6051 16.1115 34.7297C20.6764 30.8543 26.7378 28.9166 34.4456 28.9166C37.1001 28.9381 39.7502 29.1373 42.3779 29.5128C45.1467 29.8854 47.9904 30.4817 50.9837 31.1524V25.7119C50.9837 20.0478 49.7863 16.0979 47.4665 13.7876C45.1467 11.4772 41.0309 10.3593 35.2688 10.3593C32.5456 10.3592 29.8322 10.6845 27.1868 11.3282C24.4359 11.9809 21.7351 12.8276 19.1049 13.8621C18.2539 14.2413 17.379 14.565 16.4857 14.8309C16.0984 14.9581 15.6957 15.0333 15.2884 15.0545C14.2407 15.0545 13.7169 14.3092 13.7169 12.7442V9.09233C13.6367 8.19081 13.8185 7.28532 14.2407 6.48388C14.8053 5.80471 15.5233 5.26838 16.336 4.91881C19.3375 3.43973 22.5018 2.31423 25.765 1.56508C29.5781 0.590694 33.5024 0.11469 37.4389 0.149063C46.344 0.149063 52.8545 2.1613 57.0451 6.18577C61.2358 10.2102 63.2563 16.3215 63.2563 24.5195V48.6663H63.4059ZM33.0238 59.9944C35.649 59.9657 38.2521 59.5126 40.7316 58.653C43.4782 57.7073 45.9289 56.063 47.8407 53.8832C49.0468 52.51 49.9176 50.8775 50.385 49.1135C50.8992 46.9907 51.1505 44.8132 51.1333 42.6296V39.4995C48.864 38.9493 46.5655 38.5264 44.2487 38.2325C41.9156 37.9375 39.5663 37.7881 37.2144 37.7853C32.2006 37.7853 28.5338 38.7542 26.0643 40.7664C23.5948 42.7786 22.3975 45.6107 22.3975 49.3371C22.3975 52.8398 23.2955 55.4483 25.1663 57.2369C27.0371 59.0256 29.5815 59.9944 33.0238 59.9944ZM93.1146 68.0434C92.1073 68.1466 91.0967 67.8817 90.2709 67.2981C89.4877 66.4923 88.9438 65.4863 88.6994 64.3916L71.1137 6.78199C70.7728 5.81797 70.5468 4.81742 70.4402 3.8009C70.4033 3.55423 70.4237 3.30243 70.4998 3.06482C70.5758 2.82721 70.7055 2.61012 70.8789 2.43022C71.0524 2.25031 71.2649 2.11238 71.5001 2.027C71.7354 1.94163 71.9872 1.91108 72.2362 1.93772H79.5698C80.9916 1.93772 81.9645 2.1613 82.4883 2.68299C83.0121 3.20468 83.536 4.17353 83.985 5.58955L96.5569 54.9266L108.231 5.58955C108.605 4.09901 109.054 3.13015 109.653 2.68299C110.55 2.13565 111.595 1.87554 112.646 1.93772H118.633C120.054 1.93772 121.027 2.1613 121.626 2.68299C122.409 3.46931 122.908 4.49112 123.048 5.58955L134.871 55.5228L147.817 5.58955C148.055 4.50799 148.571 3.50646 149.314 2.68299C150.184 2.13416 151.205 1.87329 152.233 1.93772H159.192C159.446 1.90319 159.704 1.92759 159.947 2.00902C160.19 2.09044 160.41 2.22668 160.592 2.40709C160.773 2.5875 160.909 2.80718 160.991 3.04897C161.073 3.29077 161.097 3.54811 161.063 3.8009C161.045 4.20174 160.995 4.60052 160.913 4.99333C160.796 5.62899 160.621 6.25265 160.389 6.85652L142.355 64.4661C141.906 65.9566 141.382 66.9255 140.783 67.3726C139.937 67.9119 138.942 68.1726 137.939 68.1179H131.504C130.082 68.1179 129.109 67.8943 128.511 67.3726C127.729 66.5556 127.231 65.5109 127.089 64.3916L115.49 16.3215L103.965 64.317C103.79 65.4265 103.296 66.4619 102.544 67.2981C101.66 67.8794 100.604 68.1423 99.5502 68.0434H93.1146ZM189.275 70.0556C185.394 70.0598 181.526 69.6095 177.751 68.7141C174.009 67.8198 171.09 66.851 169.145 65.733C168.182 65.2807 167.375 64.5546 166.825 63.6463C166.534 62.9885 166.381 62.2783 166.376 61.5595V57.7586C166.376 56.1936 166.975 55.4483 168.097 55.4483C168.555 55.4498 169.01 55.5253 169.444 55.6719C169.893 55.8209 170.567 56.119 171.315 56.4171C173.958 57.575 176.718 58.4494 179.547 59.0256C182.478 59.6181 185.461 59.9177 188.452 59.9199C193.166 59.9199 196.833 59.1001 199.377 57.4605C200.596 56.7278 201.598 55.6867 202.281 54.443C202.965 53.1994 203.306 51.7977 203.269 50.3804C203.295 49.421 203.13 48.4659 202.783 47.5704C202.436 46.675 201.914 45.8569 201.248 45.1635C199.901 43.7475 197.357 42.4805 193.69 41.2881L182.839 37.9344C177.376 36.2203 173.335 33.6863 170.866 30.3326C168.457 27.2395 167.142 23.4405 167.124 19.5261C167.064 16.6405 167.76 13.7891 169.145 11.2536C170.481 8.85605 172.318 6.77204 174.533 5.14239C176.865 3.38433 179.504 2.07048 182.315 1.26697C185.379 0.387867 188.556 -0.0389952 191.744 8.74978e-06C193.42 -0.0121285 195.095 0.0874636 196.758 0.298118C198.479 0.521699 200.051 0.819808 201.622 1.11792C203.194 1.41603 204.541 1.86319 205.888 2.31035C206.98 2.64673 208.033 3.09636 209.031 3.65184C209.912 4.09436 210.68 4.73165 211.276 5.51503C211.762 6.24026 211.999 7.10354 211.949 7.97442V11.4772C211.949 13.0423 211.351 13.8621 210.228 13.8621C209.231 13.7493 208.265 13.4456 207.384 12.9678C202.862 10.977 197.96 9.98539 193.016 10.0612C188.751 10.0612 185.383 10.7319 183.064 12.148C180.744 13.564 179.547 15.7253 179.547 18.7809C179.526 19.7705 179.715 20.7534 180.102 21.6652C180.489 22.577 181.065 23.3972 181.792 24.0723C183.288 25.4883 186.057 26.9043 190.023 28.1713L200.649 31.525C206.037 33.2392 209.929 35.624 212.248 38.6796C214.533 41.6777 215.744 45.3504 215.691 49.1135C215.729 52.107 215.063 55.0679 213.745 57.7586C212.417 60.3095 210.554 62.5462 208.282 64.317C205.812 66.2319 202.99 67.6495 199.976 68.4906C196.51 69.5523 192.901 70.08 189.275 70.0556Z" fill="white"/>
<path fill-rule="evenodd" clip-rule="evenodd" d="M203.418 106.276C178.798 124.386 143.028 134 112.272 134C69.1681 134 30.3298 118.126 0.995322 91.743C-1.3245 89.6562 0.770823 86.8242 3.53964 88.4638C35.2688 106.798 74.4064 117.902 114.891 117.902C144.068 117.748 172.929 111.873 199.826 100.612C203.942 98.7486 207.459 103.295 203.418 106.276Z" fill="#FF9900"/>
<path fill-rule="evenodd" clip-rule="evenodd" d="M213.67 94.6496C210.527 90.6252 192.867 92.7119 184.86 93.6808C182.465 93.9789 182.091 91.8921 184.261 90.3271C198.33 80.4895 221.453 83.3215 224.147 86.6007C226.841 89.8799 223.399 112.983 210.228 124.013C208.208 125.728 206.262 124.833 207.16 122.597C210.153 115.219 216.813 98.5996 213.67 94.6496Z" fill="#FF9900"/>
</g>
<defs>
<clipPath id="clip0_8_683">
<rect width="225" height="134" fill="white"/>
</clipPath>
</defs>
</svg>
