<svg width="135" height="105" viewBox="0 0 135 105" fill="none" xmlns="http://www.w3.org/2000/svg">
<g clip-path="url(#clip0_8_689)">
<path d="M24.5665 104.768V97.7987C24.5665 95.1273 22.9442 93.385 20.1631 93.385C18.7725 93.385 17.2661 93.8496 16.2232 95.3596C15.412 94.0819 14.2532 93.385 12.515 93.385C11.3562 93.385 10.1974 93.7335 9.27037 95.0111V93.6173H6.83688V104.768H9.27037V98.6118C9.27037 96.6372 10.3133 95.708 11.9356 95.708C13.5579 95.708 14.3691 96.7534 14.3691 98.6118V104.768H16.8026V98.6118C16.8026 96.6372 17.9613 95.708 19.4678 95.708C21.0901 95.708 21.9013 96.7534 21.9013 98.6118V104.768H24.5665ZM60.6051 93.6173H56.6652V90.249H54.2317V93.6173H52.03V95.8242H54.2317V100.935C54.2317 103.49 55.2746 105 58.0558 105C59.0987 105 60.2575 104.652 61.0686 104.187L60.3734 102.096C59.6781 102.561 58.8669 102.677 58.2875 102.677C57.1287 102.677 56.6652 101.98 56.6652 100.819V95.8242H60.6051V93.6173ZM81.2317 93.385C79.8412 93.385 78.9141 94.0819 78.3347 95.0111V93.6173H75.9013V104.768H78.3347V98.4956C78.3347 96.6372 79.1459 95.5919 80.6523 95.5919C81.1158 95.5919 81.6953 95.708 82.1588 95.8242L82.8541 93.5012C82.3905 93.385 81.6952 93.385 81.2317 93.385ZM50.0601 94.5465C48.9013 93.7335 47.2789 93.385 45.5407 93.385C42.7596 93.385 40.9056 94.7788 40.9056 96.9857C40.9056 98.8441 42.2961 99.8895 44.7296 100.238L45.8884 100.354C47.163 100.586 47.8583 100.935 47.8583 101.516C47.8583 102.329 46.9313 102.909 45.309 102.909C43.6867 102.909 42.412 102.329 41.6008 101.748L40.442 103.606C41.7167 104.535 43.4549 105 45.1931 105C48.4378 105 50.2918 103.49 50.2918 101.399C50.2918 99.4249 48.7854 98.3795 46.4678 98.031L45.309 97.9149C44.2661 97.7987 43.4549 97.5664 43.4549 96.8695C43.4549 96.0565 44.2661 95.5919 45.5407 95.5919C46.9313 95.5919 48.3219 96.1726 49.0171 96.5211L50.0601 94.5465ZM114.721 93.385C113.33 93.385 112.403 94.0819 111.824 95.0111V93.6173H109.391V104.768H111.824V98.4956C111.824 96.6372 112.635 95.5919 114.142 95.5919C114.605 95.5919 115.185 95.708 115.648 95.8242L116.343 93.5012C115.88 93.385 115.185 93.385 114.721 93.385ZM83.6652 99.1925C83.6652 102.561 85.9828 105 89.5751 105C91.1974 105 92.3562 104.652 93.515 103.722L92.3562 101.748C91.4292 102.445 90.5021 102.793 89.4592 102.793C87.4892 102.793 86.0987 101.399 86.0987 99.1925C86.0987 97.1018 87.4892 95.708 89.4592 95.5919C90.5021 95.5919 91.4292 95.9403 92.3562 96.6372L93.515 94.6627C92.3562 93.7335 91.1974 93.385 89.5751 93.385C85.9828 93.385 83.6652 95.8242 83.6652 99.1925ZM106.146 99.1925V93.6173H103.712V95.0111C102.901 93.9658 101.742 93.385 100.236 93.385C97.1073 93.385 94.6738 95.8242 94.6738 99.1925C94.6738 102.561 97.1073 105 100.236 105C101.858 105 103.017 104.419 103.712 103.374V104.768H106.146V99.1925ZM97.2232 99.1925C97.2232 97.218 98.4978 95.5919 100.584 95.5919C102.554 95.5919 103.944 97.1018 103.944 99.1925C103.944 101.167 102.554 102.793 100.584 102.793C98.4978 102.677 97.2232 101.167 97.2232 99.1925ZM68.1373 93.385C64.8927 93.385 62.5751 95.708 62.5751 99.1925C62.5751 102.677 64.8927 105 68.2532 105C69.8755 105 71.4978 104.535 72.7725 103.49L71.6137 101.748C70.6867 102.445 69.5279 102.909 68.3691 102.909C66.8627 102.909 65.3562 102.212 65.0085 100.238H73.236C73.236 99.8895 73.236 99.6571 73.236 99.3087C73.3519 95.708 71.2661 93.385 68.1373 93.385ZM68.1373 95.4757C69.6438 95.4757 70.6867 96.4049 70.9184 98.1472H65.1244C65.3562 96.6372 66.3991 95.4757 68.1373 95.4757ZM128.511 99.1925V89.2036H126.077V95.0111C125.266 93.9658 124.107 93.385 122.601 93.385C119.472 93.385 117.039 95.8242 117.039 99.1925C117.039 102.561 119.472 105 122.601 105C124.223 105 125.382 104.419 126.077 103.374V104.768H128.511V99.1925ZM119.588 99.1925C119.588 97.218 120.863 95.5919 122.948 95.5919C124.918 95.5919 126.309 97.1018 126.309 99.1925C126.309 101.167 124.918 102.793 122.948 102.793C120.863 102.677 119.588 101.167 119.588 99.1925ZM38.2403 99.1925V93.6173H35.8068V95.0111C34.9957 93.9658 33.8369 93.385 32.3305 93.385C29.2017 93.385 26.7682 95.8242 26.7682 99.1925C26.7682 102.561 29.2017 105 32.3305 105C33.9528 105 35.1116 104.419 35.8068 103.374V104.768H38.2403V99.1925ZM29.2017 99.1925C29.2017 97.218 30.4764 95.5919 32.5622 95.5919C34.5321 95.5919 35.9227 97.1018 35.9227 99.1925C35.9227 101.167 34.5321 102.793 32.5622 102.793C30.4764 102.677 29.2017 101.167 29.2017 99.1925Z" fill="white"/>
<path d="M85.7511 8.9436H49.249V74.6848H85.7511V8.9436Z" fill="#FF5F00"/>
<path d="M51.5665 41.8142C51.5665 28.4569 57.824 16.6095 67.4421 8.9436C60.3734 3.36838 51.4507 0 41.7167 0C18.6567 0 0 18.7002 0 41.8142C0 64.9281 18.6567 83.6283 41.7167 83.6283C51.4507 83.6283 60.3734 80.26 67.4421 74.6848C57.824 67.135 51.5665 55.1715 51.5665 41.8142Z" fill="#EB001B"/>
<path d="M135 41.8142C135 64.9281 116.343 83.6283 93.2833 83.6283C83.5494 83.6283 74.6266 80.26 67.558 74.6848C77.2919 67.0188 83.4335 55.1715 83.4335 41.8142C83.4335 28.4569 77.176 16.6095 67.558 8.9436C74.6266 3.36838 83.5494 0 93.2833 0C116.343 0 135 18.8164 135 41.8142Z" fill="#F79E1B"/>
</g>
<defs>
<clipPath id="clip0_8_689">
<rect width="135" height="105" fill="white"/>
</clipPath>
</defs>
</svg>
