<svg width="168" height="106" viewBox="0 0 168 106" fill="none" xmlns="http://www.w3.org/2000/svg">
<path d="M32.9004 0H74.8325C80.6858 0 84.3264 4.77098 82.961 10.6437L63.4386 94.4609C62.0608 100.313 56.2003 105.088 50.3429 105.088H8.41489C2.56972 105.088 -1.07903 100.313 0.28644 94.4609L19.817 10.6437C21.1825 4.77098 27.0399 0 32.9004 0Z" fill="#E21836"/>
<path d="M71.3434 -0.000244141H119.564C125.417 -0.000244141 122.778 4.77074 121.401 10.6435L101.882 94.4607C100.512 100.313 100.939 105.088 95.0746 105.088H46.8538C40.9892 105.088 37.3599 100.313 38.7376 94.4607L58.2559 10.6435C59.6418 4.77074 65.487 -0.000244141 71.3434 -0.000244141Z" fill="#00447C"/>
<path d="M117.652 -0.000244141H159.584C165.445 -0.000244141 169.086 4.77074 167.709 10.6435L148.19 94.4607C146.812 100.313 140.947 105.088 135.087 105.088H93.1742C87.3096 105.088 83.6721 100.313 85.0458 94.4607L104.568 10.6435C105.934 4.77074 111.787 -0.000244141 117.652 -0.000244141Z" fill="#007B84"/>
<path d="M43.8516 26.8609C39.5395 26.9048 38.266 26.8609 37.8592 26.7648C37.7029 27.5078 34.793 40.9306 34.7849 40.9418C34.1583 43.6574 33.7025 45.5932 32.1541 46.8432C31.2751 47.5699 30.249 47.9204 29.0593 47.9204C27.147 47.9204 26.033 46.971 25.8459 45.1701L25.8102 44.5517C25.8102 44.5517 26.3927 40.9142 26.3927 40.8938C26.3927 40.8938 29.4466 28.6618 29.9935 27.0449C30.0221 26.9529 30.0302 26.9048 30.0374 26.8609C24.0931 26.913 23.0393 26.8609 22.9668 26.7648C22.9269 26.8967 22.7797 27.655 22.7797 27.655L19.6614 41.4416L19.3937 42.6108L18.8755 46.4354C18.8755 47.5699 19.0983 48.4959 19.5419 49.2788C20.9625 51.7614 25.015 52.1334 27.3075 52.1334C30.2612 52.1334 33.032 51.5058 34.9045 50.3601C38.1546 48.4397 39.005 45.4379 39.7633 42.7703L40.1149 41.4017C40.1149 41.4017 43.2608 28.6975 43.7954 27.0449C43.8158 26.9529 43.824 26.9048 43.8516 26.8609ZM54.5553 37.1095C53.7969 37.1095 52.411 37.2935 51.1662 37.9036C50.7144 38.1356 50.2872 38.4034 49.8365 38.6702L50.2432 37.2015L50.0204 36.9541C47.3804 37.4887 46.7897 37.5602 44.3511 37.9036L44.1466 38.0396C43.8635 40.3872 43.6121 42.1523 42.5624 46.767C42.1628 48.4677 41.7479 50.1847 41.3319 51.8813L41.4443 52.097C43.9433 51.9652 44.7016 51.9652 46.8735 52.0009L47.0493 51.8098C47.3253 50.3963 47.361 50.0651 47.9722 47.2023C48.2594 45.8451 48.8583 42.8627 49.1537 41.8008C49.6964 41.5493 50.232 41.302 50.743 41.302C51.9603 41.302 51.8121 42.3639 51.7651 42.787C51.713 43.4974 51.2694 45.8175 50.8146 47.8095L50.511 49.0952C50.2995 50.0447 50.0674 50.9676 49.8559 51.9089L49.9479 52.097C52.411 51.9652 53.1622 51.9652 55.2656 52.0009L55.513 51.8098C55.8932 49.6021 56.0046 49.0114 56.6792 45.797L57.0185 44.3201C57.6777 41.4297 58.0089 39.9641 57.5101 38.7703C56.9827 37.4325 55.7174 37.1095 54.5553 37.1095ZM66.5126 40.1357C65.2033 40.3871 64.3683 40.5548 63.5384 40.6631C62.7157 40.7949 61.9133 40.9145 60.648 41.0903L60.5479 41.1813L60.4559 41.2539C60.324 42.1962 60.232 43.0108 60.0573 43.9684C59.9091 44.9588 59.6811 46.0841 59.3101 47.701C59.0229 48.9387 58.8747 49.37 58.7112 49.8054C58.5518 50.2408 58.376 50.664 58.053 51.8812L58.1286 51.9937L58.192 52.0969C59.3745 52.0407 60.1482 52.0008 60.9434 51.9937C61.7375 51.9651 62.5603 51.9937 63.8338 52.0008L63.9452 51.9099L64.0648 51.8097C64.2487 50.712 64.2763 50.4166 64.3888 49.8811C64.5002 49.3067 64.6923 48.5115 65.1635 46.3877C65.3863 45.3901 65.6347 44.3957 65.8656 43.3777C66.1058 42.3638 66.3573 41.3653 66.5964 40.3677L66.5606 40.2471L66.5126 40.1357ZM66.5405 36.0554C65.3508 35.3533 63.2628 35.5761 61.8574 36.546C60.4562 37.4966 60.2967 38.8457 61.4823 39.557C62.6516 40.2398 64.7478 40.0364 66.1409 39.0583C67.5391 38.0873 67.7138 36.7504 66.5405 36.0554ZM73.7353 52.3169C76.1423 52.3169 78.6095 51.6536 80.4666 49.6851C81.8954 48.0887 82.5506 45.7134 82.7775 44.7353C83.5164 41.4933 82.941 39.9796 82.2184 39.0578C81.1207 37.6524 79.1808 37.2017 77.1684 37.2017C75.9583 37.2017 73.0761 37.3213 70.8245 39.3971C69.2076 40.8944 68.4604 42.9262 68.0097 44.8743C67.5549 46.8591 67.0316 50.4323 70.3175 51.762C71.3314 52.1974 72.793 52.3169 73.7353 52.3169ZM73.5472 45.0225C74.1022 42.5675 74.7574 40.507 76.4295 40.507C77.7397 40.507 77.8348 42.0401 77.2522 44.5033C77.148 45.0501 76.6696 47.083 76.0227 47.9487C75.5709 48.5874 75.0364 48.9748 74.4456 48.9748C74.2698 48.9748 73.2243 48.9748 73.2079 47.4223C73.1997 46.6558 73.3561 45.8728 73.5472 45.0225ZM88.7944 52.0012L88.9824 51.8101C89.2492 50.3966 89.2931 50.0644 89.8839 47.2027C90.1793 45.8454 90.7904 42.863 91.0776 41.8011C91.6214 41.5486 92.1477 41.3013 92.6751 41.3013C93.8842 41.3013 93.737 42.3632 93.689 42.7863C93.6451 43.4977 93.2015 45.8167 92.7385 47.8087L92.4513 49.0945C92.2315 50.045 91.9924 50.9669 91.7808 51.9092L91.8728 52.0973C94.3441 51.9655 95.0667 51.9655 97.1824 52.0012L97.4379 51.8101C97.8089 49.6014 97.9091 49.0107 98.6041 45.7973L98.9352 44.3194C99.5975 41.429 99.9328 39.9644 99.4422 38.7707C98.8995 37.4328 97.626 37.1098 96.4802 37.1098C95.7209 37.1098 94.3278 37.2928 93.0901 37.9039C92.6475 38.136 92.2039 38.4027 91.7686 38.6705L92.1477 37.2018L91.9443 36.9534C89.3054 37.489 88.7024 37.5605 86.2668 37.9039L86.0798 38.0399C85.7844 40.3876 85.5442 42.1516 84.4945 46.7673C84.0949 48.468 83.68 50.185 83.265 51.8817L83.3764 52.0973C85.8794 51.9655 86.6266 51.9655 88.7944 52.0012ZM106.952 52.0968C107.107 51.3384 108.03 46.8434 108.038 46.8434C108.038 46.8434 108.824 43.5452 108.872 43.4256C108.872 43.4256 109.12 43.0822 109.367 42.9463H109.731C113.164 42.9463 117.041 42.9463 120.079 40.711C122.147 39.1779 123.56 36.9141 124.191 34.1627C124.354 33.4881 124.475 32.6858 124.475 31.8835C124.475 30.8298 124.263 29.7872 123.652 28.9727C122.103 26.8049 119.017 26.765 115.455 26.7487C115.444 26.7487 113.699 26.765 113.699 26.765C109.14 26.8212 107.312 26.8049 106.56 26.7129C106.497 27.0451 106.377 27.6358 106.377 27.6358C106.377 27.6358 104.744 35.2052 104.744 35.2175C104.744 35.2175 100.836 51.3108 100.652 52.0692C104.633 52.0212 106.265 52.0212 106.952 52.0968ZM109.978 38.6506C109.978 38.6506 111.715 31.0965 111.706 31.1251L111.763 30.7378L111.787 30.4424L112.481 30.5139C112.481 30.5139 116.062 30.8216 116.146 30.8298C117.56 31.3766 118.142 32.786 117.736 34.6257C117.365 36.307 116.274 37.7205 114.873 38.4032C113.719 38.9817 112.305 39.0297 110.849 39.0297H109.907L109.978 38.6506ZM120.79 45.1624C120.331 47.1186 119.804 50.6918 123.073 51.9653C124.116 52.4088 125.05 52.5407 125.999 52.4926C127.002 52.4385 127.931 51.9356 128.792 51.212C128.714 51.5094 128.636 51.8068 128.559 52.1053L128.707 52.2964C131.059 52.1973 131.788 52.1973 134.336 52.2167L134.567 52.0409C134.939 49.8537 135.29 47.7298 136.257 43.5455C136.728 41.5413 137.198 39.5564 137.681 37.5603L137.606 37.3406C134.975 37.8281 134.272 37.9324 131.741 38.2911L131.549 38.4475C131.524 38.6509 131.497 38.8461 131.472 39.0413C131.079 38.4056 130.509 37.8629 129.629 37.5246C128.503 37.082 125.86 37.6523 123.588 39.721C121.992 41.1978 121.225 43.2215 120.79 45.1624ZM126.315 45.282C126.878 42.871 127.525 40.8309 129.201 40.8309C130.261 40.8309 130.819 41.809 130.706 43.477C130.616 43.893 130.519 44.3315 130.403 44.8272C130.236 45.5436 130.054 46.254 129.877 46.9653C129.697 47.4518 129.488 47.9107 129.258 48.2163C128.826 48.8275 127.8 49.2067 127.209 49.2067C127.042 49.2067 126.007 49.2067 125.972 47.6818C125.964 46.9224 126.12 46.1405 126.315 45.282ZM155.168 37.3211L154.965 37.0891C152.362 37.6164 151.891 37.7002 149.499 38.0232L149.323 38.199C149.315 38.2276 149.308 38.2716 149.296 38.3114L149.287 38.2716C147.507 42.3792 147.559 41.4931 146.11 44.7269C146.102 44.5797 146.102 44.4878 146.094 44.3314L145.731 37.3211L145.503 37.0891C142.776 37.6164 142.712 37.7002 140.193 38.0232L139.997 38.199C139.969 38.2828 139.969 38.3748 139.953 38.475L139.969 38.5107C140.284 40.1195 140.209 39.7607 140.524 42.2995C140.672 43.5454 140.868 44.7985 141.015 46.029C141.263 48.0885 141.402 49.1024 141.706 52.2452C140.005 55.0518 139.602 56.1137 137.965 58.5769L137.976 58.6014L136.823 60.4247C136.692 60.6169 136.572 60.7487 136.404 60.805C136.22 60.8959 135.981 60.9123 135.649 60.9123H135.01L134.061 64.0704L137.318 64.1267C139.23 64.1185 140.432 63.2242 141.079 62.0222L143.128 58.5125H143.095L143.31 58.2651C144.688 55.2991 155.168 37.3211 155.168 37.3211ZM120.79 78.7989H119.408L124.522 61.8827H126.219L126.758 60.1401L126.81 62.0779C126.746 63.2758 127.689 64.3377 130.164 64.1619H133.027L134.012 60.9046H132.935C132.316 60.9046 132.028 60.7482 132.064 60.413L132.012 58.4414H126.711V58.4517C124.997 58.4874 119.878 58.6162 118.842 58.8922C117.588 59.2151 116.266 60.1657 116.266 60.1657L116.785 58.421H111.826L110.793 61.8827L105.61 79.0574H104.604L103.618 82.2912H113.495L113.164 83.3695H118.031L118.354 82.2912H119.72L120.79 78.7989ZM116.737 65.3199C115.943 65.5397 114.465 66.206 114.465 66.206L115.78 61.8827H119.72L118.769 65.0327C118.769 65.0327 117.552 65.1043 116.737 65.3199ZM116.813 71.4962C116.813 71.4962 115.575 71.6516 114.761 71.8355C113.958 72.0788 112.454 72.8453 112.454 72.8453L113.811 68.3462H117.772L116.813 71.4962ZM114.605 78.8387H110.653L111.799 75.0417H115.739L114.605 78.8387ZM124.123 68.3462H129.82L129.002 70.9975H123.229L122.362 73.896H127.413L123.589 79.2813C123.321 79.6768 123.081 79.8168 122.814 79.9282C122.546 80.0642 122.195 80.2236 121.788 80.2236H120.387L119.424 83.3981H123.089C124.994 83.3981 126.119 82.5314 126.95 81.3939L129.573 77.8044L130.136 81.449C130.256 82.1318 130.746 82.5314 131.078 82.6868C131.445 82.8707 131.825 83.1866 132.36 83.2336C132.935 83.2581 133.349 83.2775 133.625 83.2775H135.426L136.508 79.7248H135.797C135.389 79.7248 134.687 79.6564 134.568 79.5286C134.448 79.3732 134.448 79.1341 134.384 78.7702L133.812 75.1174H131.473L132.499 73.896H138.26L139.147 70.9975H133.812L134.643 68.3462H139.961L140.947 65.0767H125.093L124.123 68.3462ZM76.0065 79.577L77.3362 75.1535H82.8012L83.7998 71.8634H78.3297L79.1647 69.1407H84.5101L85.5005 65.9549H72.1258L71.1558 69.1407H74.1944L73.3839 71.8634H70.3372L69.3274 75.2097H72.3649L70.5927 81.062C70.3535 81.8367 70.7051 82.1321 70.9279 82.4919C71.1558 82.8424 71.3868 83.0744 71.906 83.2063C72.4416 83.3259 72.8085 83.3974 73.3073 83.3974H79.4683L80.5659 79.7527L77.835 80.1278C77.3076 80.1278 75.8471 80.0645 76.0065 79.577ZM76.6334 58.4011L75.2485 60.9041C74.9521 61.4509 74.6853 61.7902 74.4451 61.9466C74.2336 62.0784 73.8145 62.1336 73.2074 62.1336H72.4848L71.519 65.3358H73.9188C75.0727 65.3358 75.9588 64.9126 76.3819 64.701C76.8368 64.4578 76.9563 64.5968 77.3079 64.2575L78.1184 63.5553H85.6122L86.6066 60.2214H81.1212L82.0789 58.4011H76.6334ZM87.6966 79.6412C87.5688 79.4573 87.6608 79.1333 87.856 78.4587L89.9042 71.6794H97.1905C98.2524 71.6641 99.019 71.6518 99.5177 71.616C100.053 71.5598 100.636 71.3687 101.271 71.0253C101.926 70.6655 102.261 70.2863 102.544 69.8509C102.86 69.4165 103.367 68.466 103.802 67.0004L106.377 58.4212L98.8156 58.4652C98.8156 58.4652 96.4873 58.8086 95.4622 59.1878C94.4278 59.6109 92.95 60.7924 92.95 60.7924L93.6327 58.4406H88.9619L82.4227 80.1277C82.1907 80.9699 82.0354 81.5811 81.9996 81.948C81.9873 82.3436 82.4984 82.735 82.8295 83.0304C83.221 83.3258 83.7994 83.2777 84.3544 83.3258C84.938 83.3697 85.7679 83.3973 86.9137 83.3973H90.5031L91.6049 79.677L88.3916 79.9806C88.0481 79.9806 87.7998 79.7966 87.6966 79.6412ZM91.2257 67.1005H98.8789L98.3924 68.6255C98.324 68.6612 98.1604 68.5498 97.3816 68.6418H90.7546L91.2257 67.1005ZM92.7588 61.9861H100.476L99.9214 63.8228C99.9214 63.8228 96.2839 63.787 95.7013 63.8943C93.138 64.3379 91.6407 65.7075 91.6407 65.7075L92.7588 61.9861ZM98.5637 73.732C98.5004 73.9599 98.4002 74.0989 98.2602 74.2032C98.1048 74.3033 97.8534 74.3391 97.4783 74.3391H96.3878L96.4521 72.482H91.9162L91.7323 81.561C91.7251 82.2161 91.7885 82.5953 92.2678 82.8988C92.7472 83.278 94.2241 83.3261 96.212 83.3261H99.0543L100.08 79.9277L97.606 80.0636L96.7833 80.1117C96.6709 80.0637 96.5635 80.0197 96.444 79.9001C96.3397 79.7969 96.1639 79.8603 96.1925 79.2051L96.212 76.8779L98.807 76.7706C100.208 76.7706 100.807 76.3147 101.318 75.8804C101.806 75.4644 101.965 74.9861 102.149 74.3391L102.585 72.2786H99.0185L98.5637 73.732Z" fill="#FEFEFE"/>
</svg>
