<svg width="206" height="68" viewBox="0 0 206 68" fill="none" xmlns="http://www.w3.org/2000/svg">
<path d="M51.2839 66.1929L78.2493 1.8606H60.7507L43.4259 45.6504L36.4198 8.42825C35.5927 4.27177 32.3502 1.873 28.7438 1.873H0.41358L0 3.74239C5.81493 5.00381 12.4074 7.05102 16.4191 9.21404C18.8716 10.5458 19.5706 11.6955 20.3729 14.8677L33.6447 66.2054L51.2839 66.1929Z" fill="white"/>
<path d="M178.348 1.86034C176.831 1.84853 175.345 2.29184 174.082 3.13301C172.819 3.97418 171.837 5.1746 171.263 6.57929L146.3 66.1927H163.778L167.252 56.5894H188.592L190.607 66.1927H206L192.559 1.86034H178.348ZM185.83 43.3962H172.024L180.788 19.239L185.83 43.3962Z" fill="white"/>
<path d="M147.164 45.1914C147.23 28.2139 123.681 27.2751 123.842 19.6859C123.896 17.3864 126.092 14.9297 130.902 14.3094C133.284 13.995 139.86 13.751 147.313 17.1837L150.237 3.53561C145.258 1.66479 139.985 0.699725 134.666 0.686035C118.214 0.686035 106.642 9.42911 106.542 21.9482C106.422 31.2124 114.814 36.3821 121.104 39.4591C127.585 42.6106 129.765 44.633 129.74 47.4536C129.69 51.7714 124.57 53.678 119.777 53.7525C111.414 53.8807 106.542 51.4943 102.688 49.687L99.6727 63.7818C103.548 65.5684 110.728 67.1276 118.176 67.198C135.654 67.198 147.102 58.5872 147.164 45.1914Z" fill="white"/>
<path d="M88.2496 66.1929L102.009 1.8606H85.3711L71.6031 66.1929H88.2496Z" fill="white"/>
</svg>
