<svg width="48" height="48" viewBox="0 0 48 48" fill="none" xmlns="http://www.w3.org/2000/svg">
<g clip-path="url(#clip0_8_104)">
<path d="M47.6716 17.5886C47.2625 16.2864 46.4452 15.1505 45.3405 14.3487C44.2358 13.5469 42.9025 13.122 41.5376 13.1366H32.7996L30.1456 4.86464C29.7282 3.56256 28.9081 2.42667 27.8035 1.62077C26.6989 0.814874 25.3669 0.380615 23.9996 0.380615C22.6323 0.380615 21.3003 0.814874 20.1957 1.62077C19.0911 2.42667 18.2709 3.56256 17.8536 4.86464L15.1996 13.1366H6.46159C5.10108 13.1386 3.77598 13.5704 2.67555 14.3705C1.57513 15.1705 0.755674 16.2978 0.334235 17.5914C-0.0872035 18.885 -0.0890689 20.2787 0.328906 21.5734C0.74688 22.8681 1.56331 23.9977 2.66159 24.8006L9.77359 30.0006L7.06959 38.3746C6.63262 39.6734 6.62708 41.0786 7.05381 42.3808C7.48054 43.683 8.31668 44.8124 9.43759 45.6006C10.5393 46.4142 11.8744 46.85 13.2439 46.8432C14.6134 46.8363 15.9441 46.3872 17.0376 45.5626L23.9996 40.4386L30.9636 45.5566C32.0633 46.3655 33.3912 46.8049 34.7563 46.8116C36.1215 46.8182 37.4536 46.3918 38.5611 45.5937C39.6687 44.7955 40.4946 43.6667 40.9202 42.3696C41.3457 41.0725 41.349 39.6738 40.9296 38.3746L38.2256 30.0006L45.3456 24.8006C46.4564 24.0077 47.2824 22.8782 47.7014 21.5793C48.1203 20.2804 48.1098 18.8812 47.6716 17.5886ZM42.9856 21.5706L34.6976 27.6286C34.3572 27.877 34.1039 28.2265 33.9739 28.6273C33.8439 29.0281 33.8438 29.4598 33.9736 29.8606L37.1236 39.6006C37.283 40.0947 37.2816 40.6265 37.1197 41.1197C36.9578 41.6129 36.6436 42.042 36.2225 42.3454C35.8013 42.6488 35.2947 42.8108 34.7756 42.8082C34.2565 42.8055 33.7517 42.6383 33.3336 42.3306L25.1836 36.3306C24.8403 36.0785 24.4255 35.9425 23.9996 35.9425C23.5737 35.9425 23.1589 36.0785 22.8156 36.3306L14.6656 42.3306C14.2478 42.6425 13.7415 42.8131 13.2201 42.8179C12.6988 42.8226 12.1895 42.6611 11.7661 42.357C11.3426 42.0528 11.0271 41.6216 10.8652 41.126C10.7033 40.6304 10.7034 40.0961 10.8656 39.6006L14.0256 29.8606C14.1554 29.4598 14.1553 29.0281 14.0253 28.6273C13.8953 28.2265 13.642 27.877 13.3016 27.6286L5.01359 21.5706C4.5962 21.265 4.28606 20.8353 4.12747 20.3429C3.96889 19.8505 3.96997 19.3206 4.13056 18.8288C4.29115 18.3371 4.60304 17.9087 5.02168 17.6047C5.44031 17.3008 5.94428 17.137 6.46159 17.1366H16.6616C17.085 17.1366 17.4975 17.0022 17.8397 16.7528C18.1819 16.5034 18.436 16.1518 18.5656 15.7486L21.6656 6.08664C21.8247 5.59221 22.1366 5.16102 22.5564 4.85514C22.9762 4.54926 23.4822 4.38445 24.0016 4.38445C24.521 4.38445 25.027 4.54926 25.4468 4.85514C25.8666 5.16102 26.1785 5.59221 26.3376 6.08664L29.4376 15.7486C29.5672 16.1518 29.8213 16.5034 30.1635 16.7528C30.5057 17.0022 30.9182 17.1366 31.3416 17.1366H41.5416C42.0589 17.137 42.5629 17.3008 42.9815 17.6047C43.4001 17.9087 43.712 18.3371 43.8726 18.8288C44.0332 19.3206 44.0343 19.8505 43.8757 20.3429C43.7171 20.8353 43.407 21.265 42.9896 21.5706H42.9856Z" fill="url(#paint0_linear_8_104)"/>
</g>
<defs>
<linearGradient id="paint0_linear_8_104" x1="24.0124" y1="0.385258" x2="24.0124" y2="46.8433" gradientUnits="userSpaceOnUse">
<stop stop-color="#FF3030"/>
<stop offset="1" stop-color="#FF8D29"/>
</linearGradient>
<clipPath id="clip0_8_104">
<rect width="48" height="48" fill="white"/>
</clipPath>
</defs>
</svg>
