<svg width="48" height="48" viewBox="0 0 48 48" fill="none" xmlns="http://www.w3.org/2000/svg">
<g clip-path="url(#clip0_8_80)">
<path d="M24.0001 32.0004C21.8784 32.0004 19.8436 31.1576 18.3433 29.6573C16.843 28.157 16.0001 26.1222 16.0001 24.0004C16.0001 21.8787 16.843 19.8439 18.3433 18.3436C19.8436 16.8433 21.8784 16.0004 24.0001 16.0004C26.1218 16.0004 28.1567 16.8433 29.657 18.3436C31.1573 19.8439 32.0001 21.8787 32.0001 24.0004C32.0001 26.1222 31.1573 28.157 29.657 29.6573C28.1567 31.1576 26.1218 32.0004 24.0001 32.0004ZM24.0001 20.0004C22.9392 20.0004 21.9218 20.4219 21.1717 21.172C20.4215 21.9222 20.0001 22.9396 20.0001 24.0004C20.0001 25.0613 20.4215 26.0787 21.1717 26.8289C21.9218 27.579 22.9392 28.0004 24.0001 28.0004C25.061 28.0004 26.0784 27.579 26.8285 26.8289C27.5787 26.0787 28.0001 25.0613 28.0001 24.0004C28.0001 22.9396 27.5787 21.9222 26.8285 21.172C26.0784 20.4219 25.061 20.0004 24.0001 20.0004ZM24.0001 48.0004C21.8184 47.9982 19.6972 47.2835 17.9589 45.9651C16.2207 44.6467 14.9605 42.7967 14.3701 40.6964C12.2595 41.1625 10.0551 40.9425 8.07823 40.0684C6.10135 39.1943 4.4552 37.7119 3.3796 35.837C2.30399 33.9621 1.85514 31.7928 2.09842 29.645C2.3417 27.4972 3.2644 25.4832 4.73211 23.8964C-2.06789 16.8744 4.75012 4.69644 14.4001 7.19844C15.0226 5.13675 16.2922 3.33023 18.0212 2.04619C19.7501 0.762162 21.8465 0.0688477 24.0001 0.0688477C26.1537 0.0688477 28.2501 0.762162 29.9791 2.04619C31.708 3.33023 32.9777 5.13675 33.6001 7.19844C43.4001 4.76644 50.0001 16.8244 43.2581 23.9824C50.0741 31.0584 43.2801 42.8664 33.6301 40.6964C33.0397 42.7967 31.7796 44.6467 30.0413 45.9651C28.303 47.2835 26.1818 47.9982 24.0001 48.0004V48.0004ZM16.0001 36.0004C16.5305 36.0004 17.0393 36.2112 17.4143 36.5862C17.7894 36.9613 18.0001 37.47 18.0001 38.0004C18.0001 39.5917 18.6323 41.1179 19.7575 42.2431C20.8827 43.3683 22.4088 44.0004 24.0001 44.0004C25.5914 44.0004 27.1175 43.3683 28.2428 42.2431C29.368 41.1179 30.0001 39.5917 30.0001 38.0004C30 37.6481 30.0929 37.302 30.2695 36.9971C30.446 36.6922 30.7 36.4394 31.0057 36.2642C31.3114 36.0891 31.658 35.9977 32.0103 35.9995C32.3626 36.0013 32.7082 36.0962 33.0121 36.2744C39.9441 39.6244 45.8121 29.9104 39.0441 25.7564C38.7318 25.5818 38.4717 25.327 38.2907 25.0183C38.1097 24.7096 38.0143 24.3583 38.0143 24.0004C38.0143 23.6426 38.1097 23.2912 38.2907 22.9826C38.4717 22.6739 38.7318 22.4191 39.0441 22.2444C45.6701 18.2264 40.0881 7.80644 33.0061 11.7364C32.7016 11.9136 32.3557 12.0073 32.0035 12.0079C31.6512 12.0085 31.305 11.916 30.9999 11.7398C30.6948 11.5636 30.4417 11.31 30.2661 11.0045C30.0906 10.6991 29.9988 10.3527 30.0001 10.0004C30.0001 8.40914 29.368 6.88302 28.2428 5.7578C27.1175 4.63258 25.5914 4.00044 24.0001 4.00044C22.4088 4.00044 20.8827 4.63258 19.7575 5.7578C18.6323 6.88302 18.0001 8.40914 18.0001 10.0004C18.0008 10.3518 17.9089 10.6972 17.7336 11.0018C17.5584 11.3064 17.306 11.5594 17.0018 11.7355C16.6977 11.9115 16.3525 12.0042 16.0011 12.0044C15.6497 12.0046 15.3044 11.9121 15.0001 11.7364C8.00012 7.81644 2.27612 18.1604 8.95612 22.1404C9.26837 22.3154 9.52836 22.5704 9.70932 22.8792C9.89027 23.188 9.98566 23.5395 9.98566 23.8974C9.98566 24.2554 9.89027 24.6068 9.70932 24.9157C9.52836 25.2245 9.26837 25.4795 8.95612 25.6544C2.26012 29.8804 7.92812 39.6004 14.9881 36.2744C15.2951 36.0947 15.6444 36.0002 16.0001 36.0004Z" fill="url(#paint0_linear_8_80)"/>
</g>
<defs>
<linearGradient id="paint0_linear_8_80" x1="24.0025" y1="0.0736375" x2="24.0025" y2="48.0004" gradientUnits="userSpaceOnUse">
<stop stop-color="#FF3030"/>
<stop offset="1" stop-color="#FF8D29"/>
</linearGradient>
<clipPath id="clip0_8_80">
<rect width="48" height="48" fill="white"/>
</clipPath>
</defs>
</svg>
