<svg width="48" height="48" viewBox="0 0 48 48" fill="none" xmlns="http://www.w3.org/2000/svg">
<g clip-path="url(#clip0_8_68)">
<path d="M46.2425 18.1377L31.0725 2.96573C29.1949 1.09371 26.6518 0.0424805 24.0005 0.0424805C21.3491 0.0424805 18.806 1.09371 16.9285 2.96573L1.75845 18.1377C1.1993 18.6933 0.755991 19.3543 0.454216 20.0825C0.152442 20.8107 -0.00179356 21.5915 0.000451405 22.3797V42.0137C0.000451405 43.605 0.632593 45.1312 1.75781 46.2564C2.88303 47.3816 4.40915 48.0137 6.00045 48.0137H42.0005C43.5918 48.0137 45.1179 47.3816 46.2431 46.2564C47.3683 45.1312 48.0005 43.605 48.0005 42.0137V22.3797C48.0027 21.5915 47.8485 20.8107 47.5467 20.0825C47.2449 19.3543 46.8016 18.6933 46.2425 18.1377V18.1377ZM30.0005 44.0137H18.0005V36.1457C18.0005 34.5544 18.6326 33.0283 19.7578 31.9031C20.883 30.7779 22.4092 30.1457 24.0005 30.1457C25.5918 30.1457 27.1179 30.7779 28.2431 31.9031C29.3683 33.0283 30.0005 34.5544 30.0005 36.1457V44.0137ZM44.0005 42.0137C44.0005 42.5442 43.7897 43.0529 43.4147 43.4279C43.0396 43.803 42.5309 44.0137 42.0005 44.0137H34.0005V36.1457C34.0005 33.4936 32.9469 30.95 31.0715 29.0747C29.1962 27.1993 26.6526 26.1457 24.0005 26.1457C21.3483 26.1457 18.8048 27.1993 16.9294 29.0747C15.054 30.95 14.0005 33.4936 14.0005 36.1457V44.0137H6.00045C5.47002 44.0137 4.96131 43.803 4.58624 43.4279C4.21117 43.0529 4.00045 42.5442 4.00045 42.0137V22.3797C4.00231 21.8497 4.21283 21.3417 4.58645 20.9657L19.7565 5.79973C20.8839 4.67759 22.4098 4.04762 24.0005 4.04762C25.5911 4.04762 27.1171 4.67759 28.2445 5.79973L43.4145 20.9717C43.7866 21.3462 43.997 21.8518 44.0005 22.3797V42.0137Z" fill="url(#paint0_linear_8_68)"/>
</g>
<defs>
<linearGradient id="paint0_linear_8_68" x1="24.0005" y1="0.0472743" x2="24.0005" y2="48.0137" gradientUnits="userSpaceOnUse">
<stop stop-color="#FF3030"/>
<stop offset="1" stop-color="#FF8D29"/>
</linearGradient>
<clipPath id="clip0_8_68">
<rect width="48" height="48" fill="white"/>
</clipPath>
</defs>
</svg>
