<svg width="48" height="48" viewBox="0 0 48 48" fill="none" xmlns="http://www.w3.org/2000/svg">
<g clip-path="url(#clip0_8_86)">
<path d="M24 0C19.2533 0 14.6131 1.40758 10.6663 4.04473C6.71954 6.68188 3.64341 10.4302 1.8269 14.8156C0.0103989 19.201 -0.464881 24.0266 0.461164 28.6822C1.38721 33.3377 3.67299 37.6141 7.02945 40.9706C10.3859 44.327 14.6623 46.6128 19.3178 47.5389C23.9734 48.4649 28.799 47.9896 33.1844 46.1731C37.5698 44.3566 41.3181 41.2805 43.9553 37.3337C46.5924 33.3869 48 28.7468 48 24C47.9931 17.6369 45.4624 11.5364 40.963 7.03704C36.4636 2.53766 30.3631 0.00688216 24 0V0ZM24 44C20.0444 44 16.1776 42.827 12.8886 40.6294C9.59962 38.4318 7.03617 35.3082 5.52242 31.6537C4.00867 27.9992 3.6126 23.9778 4.38431 20.0982C5.15601 16.2186 7.06082 12.6549 9.85787 9.85787C12.6549 7.06081 16.2186 5.156 20.0982 4.3843C23.9778 3.61259 27.9992 4.00866 31.6537 5.52241C35.3082 7.03616 38.4318 9.59961 40.6294 12.8886C42.827 16.1776 44 20.0444 44 24C43.9942 29.3025 41.8852 34.3862 38.1357 38.1357C34.3862 41.8852 29.3026 43.9942 24 44V44Z" fill="url(#paint0_linear_8_86)"/>
<path d="M23.9997 12C23.4692 12 22.9605 12.2107 22.5855 12.5858C22.2104 12.9609 21.9997 13.4696 21.9997 14V22.65L15.2577 26.874C14.8068 27.1556 14.4863 27.6049 14.3667 28.1228C14.247 28.6408 14.338 29.1851 14.6197 29.636C14.9013 30.0868 15.3506 30.4074 15.8685 30.527C16.3865 30.6466 16.9308 30.5556 17.3817 30.274L25.0617 25.474C25.3519 25.2922 25.5905 25.0389 25.7547 24.7384C25.919 24.438 26.0033 24.1004 25.9997 23.758V14C25.9997 13.4696 25.789 12.9609 25.4139 12.5858C25.0388 12.2107 24.5301 12 23.9997 12Z" fill="url(#paint1_linear_8_86)"/>
</g>
<defs>
<linearGradient id="paint0_linear_8_86" x1="24" y1="0.00479669" x2="24" y2="48" gradientUnits="userSpaceOnUse">
<stop stop-color="#FF3030"/>
<stop offset="1" stop-color="#FF8D29"/>
</linearGradient>
<linearGradient id="paint1_linear_8_86" x1="20.1575" y1="12.0019" x2="20.1575" y2="30.5784" gradientUnits="userSpaceOnUse">
<stop stop-color="#FF3030"/>
<stop offset="1" stop-color="#FF8D29"/>
</linearGradient>
<clipPath id="clip0_8_86">
<rect width="48" height="48" fill="white"/>
</clipPath>
</defs>
</svg>
