<svg width="48" height="48" viewBox="0 0 48 48" fill="none" xmlns="http://www.w3.org/2000/svg">
<g clip-path="url(#clip0_8_92)">
<path d="M33 34C31.612 34.0016 30.2558 34.4159 29.1038 35.1901C27.9517 35.9643 27.0559 37.0635 26.53 38.348C24.8753 37.884 23.1247 37.884 21.47 38.348C20.8315 36.8001 19.6584 35.5329 18.1643 34.777C16.6702 34.0212 14.9543 33.827 13.329 34.2298C11.7037 34.6326 10.2771 35.6056 9.30884 36.9716C8.34056 38.3377 7.89499 40.0061 8.05324 41.673C8.21149 43.34 8.96303 44.8947 10.1711 46.0542C11.3791 47.2136 12.9633 47.9008 14.6354 47.9906C16.3074 48.0803 17.9561 47.5667 19.2813 46.5432C20.6065 45.5197 21.5202 44.0544 21.856 42.414C22.5448 42.1653 23.2682 42.0257 24 42C24.7319 42.0255 25.4553 42.1651 26.144 42.414C26.4114 43.7106 27.0411 44.9048 27.9598 45.8579C28.8786 46.8111 30.0488 47.4842 31.3347 47.7991C32.6206 48.114 33.9694 48.0578 35.2246 47.637C36.4799 47.2162 37.59 46.4481 38.4263 45.4218C39.2626 44.3955 39.7907 43.153 39.9493 41.8387C40.1079 40.5244 39.8905 39.192 39.3224 37.9962C38.7543 36.8004 37.8588 35.7902 36.7397 35.0829C35.6206 34.3755 34.3239 34.0001 33 34V34ZM15 44C14.4067 44 13.8266 43.8241 13.3333 43.4944C12.8399 43.1648 12.4554 42.6962 12.2284 42.1481C12.0013 41.5999 11.9419 40.9967 12.0576 40.4147C12.1734 39.8328 12.4591 39.2982 12.8787 38.8787C13.2982 38.4591 13.8328 38.1734 14.4147 38.0576C14.9967 37.9419 15.5999 38.0013 16.1481 38.2284C16.6962 38.4554 17.1648 38.8399 17.4944 39.3333C17.8241 39.8266 18 40.4067 18 41C18 41.7957 17.6839 42.5587 17.1213 43.1213C16.5587 43.6839 15.7956 44 15 44V44ZM33 44C32.4067 44 31.8266 43.8241 31.3333 43.4944C30.8399 43.1648 30.4554 42.6962 30.2284 42.1481C30.0013 41.5999 29.9419 40.9967 30.0576 40.4147C30.1734 39.8328 30.4591 39.2982 30.8787 38.8787C31.2982 38.4591 31.8328 38.1734 32.4147 38.0576C32.9967 37.9419 33.5999 38.0013 34.148 38.2284C34.6962 38.4554 35.1648 38.8399 35.4944 39.3333C35.8241 39.8266 36 40.4067 36 41C36 41.7957 35.6839 42.5587 35.1213 43.1213C34.5587 43.6839 33.7956 44 33 44ZM39.95 17.35C39.418 1.224 30.6 0.052 30.21 0.012C30.1403 0.00401625 30.0702 9.76402e-06 30 0C28.2654 0.0688977 26.5876 0.636964 25.168 1.636C24.8259 1.8753 24.4185 2.00365 24.001 2.00365C23.5835 2.00365 23.1761 1.8753 22.834 1.636C21.4135 0.637112 19.7351 0.0690801 18 0C17.9332 0.000380407 17.8664 0.00438629 17.8 0.012C17.412 0.052 8.6 1.224 8.06 17.35C5.386 18.244 0 20.486 0 24C0 31.38 12.388 32 24 32C35.612 32 48 31.38 48 24C48 20.486 42.614 18.244 39.95 17.35ZM18.11 4.01C18.9827 4.10402 19.818 4.41478 20.54 4.914C21.5553 5.62182 22.7633 6.00131 24.001 6.00131C25.2387 6.00131 26.4467 5.62182 27.462 4.914C28.179 4.41817 29.0077 4.10759 29.874 4.01C30.764 4.222 35.692 5.938 35.986 17.726C32.2229 19.4089 28.118 20.1877 24 20C19.8822 20.1876 15.7775 19.4095 12.014 17.728C12.31 5.84 17.316 4.2 18.11 4.01ZM24 28C7.47 28 4 25.824 3.976 24.164C5.55757 22.6095 7.53653 21.5204 9.696 21.016C14.1328 23.2105 19.0559 24.2375 24 24C28.9441 24.2375 33.8672 23.2105 38.304 21.016C40.4131 21.5432 42.3659 22.5662 44 24C44 25.824 40.53 28 24 28Z" fill="url(#paint0_linear_8_92)"/>
</g>
<defs>
<linearGradient id="paint0_linear_8_92" x1="24" y1="0.00479675" x2="24" y2="48.0006" gradientUnits="userSpaceOnUse">
<stop stop-color="#FF3030"/>
<stop offset="1" stop-color="#FF8D29"/>
</linearGradient>
<clipPath id="clip0_8_92">
<rect width="48" height="48" fill="white"/>
</clipPath>
</defs>
</svg>
