<svg width="36" height="36" viewBox="0 0 36 36" fill="none" xmlns="http://www.w3.org/2000/svg">
<circle cx="18" cy="18" r="12" fill="url(#paint0_linear_8_669)"/>
<circle cx="18" cy="18" r="17" stroke="url(#paint1_linear_8_669)" stroke-width="2"/>
<path d="M17.6031 24.192C16.7925 24.192 16.0085 24.0853 15.2511 23.872C14.4938 23.6587 13.8965 23.376 13.4591 23.024L14.4831 20.48C14.9311 20.7787 15.4111 21.008 15.9231 21.168C16.4351 21.3173 16.9525 21.392 17.4751 21.392C17.9765 21.392 18.3445 21.3173 18.5791 21.168C18.8245 21.0187 18.9471 20.7947 18.9471 20.496C18.9471 20.208 18.8458 20 18.6431 19.872C18.4405 19.744 18.1365 19.68 17.7311 19.68H15.6671V16.992H17.3951C17.7685 16.992 18.0618 16.9227 18.2751 16.784C18.4885 16.6453 18.5951 16.4427 18.5951 16.176C18.5951 15.8987 18.4885 15.6907 18.2751 15.552C18.0618 15.4027 17.7471 15.328 17.3311 15.328C16.3711 15.328 15.4858 15.6267 14.6751 16.224L13.6351 13.728C14.1365 13.3547 14.7445 13.0613 15.4591 12.848C16.1738 12.6347 16.9151 12.528 17.6831 12.528C18.9951 12.528 20.0191 12.8107 20.7551 13.376C21.4911 13.9307 21.8591 14.7093 21.8591 15.712C21.8591 16.3413 21.6778 16.8853 21.3151 17.344C20.9631 17.8027 20.4725 18.1067 19.8431 18.256V18.016C20.5791 18.1333 21.1551 18.4427 21.5711 18.944C21.9978 19.4453 22.2111 20.0747 22.2111 20.832C22.2111 21.8773 21.8005 22.6987 20.9791 23.296C20.1578 23.8933 19.0325 24.192 17.6031 24.192Z" fill="white"/>
<defs>
<linearGradient id="paint0_linear_8_669" x1="18" y1="6.0024" x2="18" y2="30" gradientUnits="userSpaceOnUse">
<stop stop-color="#FF3030"/>
<stop offset="1" stop-color="#FF8D29"/>
</linearGradient>
<linearGradient id="paint1_linear_8_669" x1="18" y1="0.00359751" x2="18" y2="36" gradientUnits="userSpaceOnUse">
<stop stop-color="#FF3030"/>
<stop offset="1" stop-color="#FF8D29"/>
</linearGradient>
</defs>
</svg>
