<svg width="16" height="16" viewBox="0 0 16 16" fill="none" xmlns="http://www.w3.org/2000/svg">
<g clip-path="url(#clip0_8_926)">
<path d="M4.73333 9.81598C4.60832 9.94097 4.43878 10.0112 4.262 10.0112C4.08522 10.0112 3.91569 9.94097 3.79067 9.81598L0.491334 6.51598C0.336523 6.36121 0.213718 6.17746 0.129933 5.97522C0.0461483 5.77299 0.00302315 5.55622 0.00302315 5.33732C0.00302315 5.11841 0.0461483 4.90165 0.129933 4.69941C0.213718 4.49717 0.336523 4.31342 0.491334 4.15865L3.79133 0.859317C3.91811 0.744366 4.08424 0.682568 4.25532 0.68672C4.4264 0.690871 4.58933 0.760654 4.71038 0.881619C4.83143 1.00258 4.90133 1.16547 4.9056 1.33655C4.90987 1.50762 4.8482 1.67379 4.73333 1.80065L1.86667 4.66732H12.6667C13.5507 4.66732 14.3986 5.01851 15.0237 5.64363C15.6488 6.26875 16 7.1166 16 8.00065V12.6673C15.9989 13.551 15.6474 14.3983 15.0225 15.0232C14.3976 15.6481 13.5504 15.9996 12.6667 16.0007H3.33333C3.15652 16.0007 2.98695 15.9304 2.86193 15.8054C2.73691 15.6804 2.66667 15.5108 2.66667 15.334C2.66667 15.1572 2.73691 14.9876 2.86193 14.8626C2.98695 14.7376 3.15652 14.6673 3.33333 14.6673H12.6667C13.1971 14.6673 13.7058 14.4566 14.0809 14.0815C14.456 13.7065 14.6667 13.1978 14.6667 12.6673V8.00065C14.6667 7.47022 14.456 6.96151 14.0809 6.58644C13.7058 6.21136 13.1971 6.00065 12.6667 6.00065H1.85867L4.73333 8.87332C4.85831 8.99834 4.92852 9.16788 4.92852 9.34465C4.92852 9.52143 4.85831 9.69097 4.73333 9.81598Z" fill="white"/>
</g>
<defs>
<clipPath id="clip0_8_926">
<rect width="16" height="16" fill="white" transform="matrix(-1 0 0 1 16 0)"/>
</clipPath>
</defs>
</svg>
