<svg width="20" height="20" viewBox="0 0 20 20" fill="none" xmlns="http://www.w3.org/2000/svg">
<g clip-path="url(#clip0_8_826)">
<path d="M19.7625 1.90388C19.6043 1.74623 19.39 1.65771 19.1667 1.65771C18.9433 1.65771 18.7291 1.74623 18.5708 1.90388L14.6008 5.87388L14.3342 5.61305C13.6311 4.92634 12.7083 4.50979 11.7282 4.43677C10.7481 4.36375 9.77373 4.63894 8.97667 5.21388C7.82628 6.08138 6.54756 6.76403 5.18667 7.23721L3.45833 7.74388C2.89671 7.90874 2.37578 8.18926 1.92901 8.56743C1.48225 8.94559 1.11953 9.41303 0.864166 9.93971C0.613005 10.4592 0.473115 11.0255 0.453456 11.6022C0.433796 12.179 0.5348 12.7534 0.75 13.2889C1.56565 15.2912 2.96393 17.0023 4.7636 18.2005C6.56328 19.3987 8.68136 20.0287 10.8433 20.0089H11.6133C11.7856 20.0087 11.9537 19.9558 12.095 19.8572C13.5618 18.8997 14.8155 17.6501 15.7776 16.1863C16.7397 14.7225 17.3896 13.076 17.6867 11.3497C17.79 10.6896 17.734 10.0144 17.5234 9.38033C17.3128 8.74627 16.9536 8.17176 16.4758 7.70471L15.8092 7.05138L19.765 3.09555C19.9223 2.937 20.0104 2.72256 20.0099 2.4992C20.0095 2.27584 19.9205 2.06178 19.7625 1.90388V1.90388ZM11.34 18.3205H10.84C9.6087 18.3222 8.38901 18.0824 7.25 17.6147L7.25917 17.6097C8.71658 16.8784 9.96424 15.7888 10.885 14.443L11.3167 13.8089C11.4424 13.6243 11.4897 13.3974 11.4481 13.178C11.4066 12.9585 11.2795 12.7646 11.095 12.6389C10.9105 12.5131 10.6835 12.4658 10.4641 12.5074C10.2447 12.549 10.0508 12.676 9.925 12.8605L9.49333 13.4947C8.73267 14.6044 7.70271 15.5027 6.5 16.1055L5.4575 16.6305C4.62343 16.0442 3.89549 15.32 3.305 14.4889C4.67082 14.0294 5.91692 13.2709 6.9525 12.2689C7.11229 12.1126 7.20347 11.8993 7.20597 11.6758C7.20847 11.4523 7.12209 11.237 6.96583 11.0772C6.80958 10.9174 6.59624 10.8262 6.37276 10.8237C6.14928 10.8212 5.93396 10.9076 5.77417 11.0639C4.84157 11.9675 3.70336 12.631 2.4575 12.9972C2.40667 12.8847 2.35167 12.7747 2.30583 12.6589C2.17677 12.3419 2.11635 12.0012 2.12856 11.6592C2.14077 11.3172 2.22533 10.9817 2.37667 10.6747C2.52988 10.3595 2.74716 10.0798 3.01463 9.85336C3.28209 9.62693 3.59386 9.4588 3.93 9.35971L5.6575 8.85304C6.65996 8.531 7.61887 8.08654 8.5125 7.52971L15.1083 13.9564C14.232 15.7009 12.9373 17.2014 11.34 18.3239V18.3205ZM16.0233 11.0847C15.9596 11.4746 15.8737 11.8605 15.7658 12.2405L9.95667 6.58305C10.3828 6.27674 10.8943 6.11178 11.4192 6.11138C12.0684 6.11056 12.692 6.36461 13.1558 6.81888L15.2967 8.90971C15.5825 9.18872 15.7975 9.53195 15.9239 9.91083C16.0503 10.2897 16.0844 10.6933 16.0233 11.088V11.0847Z" fill="white"/>
</g>
<defs>
<clipPath id="clip0_8_826">
<rect width="20" height="20" fill="white"/>
</clipPath>
</defs>
</svg>
