<svg width="20" height="20" viewBox="0 0 20 20" fill="none" xmlns="http://www.w3.org/2000/svg">
<g clip-path="url(#clip0_8_823)">
<path d="M10.0001 1.66641C11.1056 1.67003 12.1993 1.89286 13.218 2.32198C14.2368 2.7511 15.1603 3.37801 15.9351 4.16641H13.3335C13.1124 4.16641 12.9005 4.25421 12.7442 4.41049C12.5879 4.56677 12.5001 4.77873 12.5001 4.99974C12.5001 5.22076 12.5879 5.43272 12.7442 5.589C12.9005 5.74528 13.1124 5.83308 13.3335 5.83308H16.786C17.1963 5.83286 17.5898 5.66974 17.88 5.37958C18.1701 5.08942 18.3332 4.69593 18.3335 4.28558V0.833075C18.3335 0.612061 18.2457 0.4001 18.0894 0.243819C17.9331 0.0875391 17.7211 -0.000258311 17.5001 -0.000258311V-0.000258311C17.2791 -0.000258311 17.0672 0.0875391 16.9109 0.243819C16.7546 0.4001 16.6668 0.612061 16.6668 0.833075V2.56474C15.2894 1.32429 13.594 0.49175 11.7702 0.160366C9.94647 -0.171018 8.06648 0.011835 6.34078 0.688448C4.61508 1.36506 3.11181 2.50872 1.9993 3.99135C0.886801 5.47397 0.208996 7.23703 0.0417947 9.08308C0.0310309 9.19912 0.0445579 9.31614 0.0815138 9.42667C0.11847 9.5372 0.178044 9.63883 0.256442 9.72506C0.334839 9.8113 0.43034 9.88026 0.53686 9.92755C0.64338 9.97485 0.758582 9.99943 0.875128 9.99974V9.99974C1.07895 10.0023 1.27641 9.92878 1.42884 9.79345C1.58128 9.65812 1.67772 9.47077 1.69929 9.26808C1.88481 7.1937 2.83927 5.26366 4.3752 3.85711C5.91112 2.45055 7.91748 1.66915 10.0001 1.66641Z" fill="white"/>
<path d="M19.1259 10.0001C18.9221 9.99747 18.7246 10.071 18.5722 10.2064C18.4198 10.3417 18.3233 10.529 18.3017 10.7317C18.164 12.3178 17.5742 13.831 16.6023 15.0919C15.6304 16.3528 14.3172 17.3085 12.8185 17.8455C11.3199 18.3826 9.69858 18.4785 8.14704 18.1218C6.5955 17.7652 5.17883 16.971 4.06508 15.8334H6.66675C6.88776 15.8334 7.09972 15.7456 7.256 15.5893C7.41228 15.4331 7.50008 15.2211 7.50008 15.0001C7.50008 14.7791 7.41228 14.5671 7.256 14.4108C7.09972 14.2545 6.88776 14.1667 6.66675 14.1667H3.21425C3.011 14.1666 2.80972 14.2066 2.62192 14.2843C2.43412 14.362 2.26348 14.476 2.11976 14.6198C1.97604 14.7635 1.86205 14.9341 1.78432 15.1219C1.70659 15.3097 1.66664 15.511 1.66675 15.7142V19.1668C1.66675 19.3878 1.75455 19.5997 1.91083 19.756C2.06711 19.9123 2.27907 20.0001 2.50008 20.0001C2.7211 20.0001 2.93306 19.9123 3.08934 19.756C3.24562 19.5997 3.33341 19.3878 3.33341 19.1668V17.4351C4.71077 18.6755 6.40626 19.5081 8.23 19.8395C10.0537 20.1709 11.9337 19.988 13.6594 19.3114C15.3851 18.6348 16.8884 17.4911 18.0009 16.0085C19.1134 14.5258 19.7912 12.7628 19.9584 10.9167C19.9692 10.8007 19.9557 10.6837 19.9187 10.5731C19.8817 10.4626 19.8222 10.361 19.7438 10.2747C19.6654 10.1885 19.5699 10.1195 19.4633 10.0723C19.3568 10.025 19.2416 10.0004 19.1251 10.0001H19.1259Z" fill="white"/>
</g>
<defs>
<clipPath id="clip0_8_823">
<rect width="20" height="20" fill="white"/>
</clipPath>
</defs>
</svg>
