<svg width="18" height="18" viewBox="0 0 18 18" fill="none" xmlns="http://www.w3.org/2000/svg">
<g clip-path="url(#clip0_8_809)">
<path d="M5.24983 18.0001C5.15113 18.0007 5.05328 17.9818 4.9619 17.9444C4.87052 17.9071 4.78741 17.8521 4.71733 17.7826C4.64704 17.7129 4.59124 17.6299 4.55316 17.5386C4.51509 17.4472 4.49548 17.3491 4.49548 17.2501C4.49548 17.1511 4.51509 17.0531 4.55316 16.9617C4.59124 16.8703 4.64704 16.7873 4.71733 16.7176L10.8448 10.5901C11.2662 10.1683 11.5029 9.59638 11.5029 9.00013C11.5029 8.40388 11.2662 7.83201 10.8448 7.41013L4.71733 1.28264C4.5761 1.14141 4.49676 0.949864 4.49676 0.750138C4.49676 0.550412 4.5761 0.358866 4.71733 0.217639C4.85856 0.0764111 5.05011 -0.00292969 5.24983 -0.00292969C5.44956 -0.00292969 5.6411 0.0764111 5.78233 0.217639L11.9098 6.34513C12.2591 6.69347 12.5361 7.10729 12.7252 7.56288C12.9142 8.01847 13.0115 8.50687 13.0115 9.00013C13.0115 9.49338 12.9142 9.98179 12.7252 10.4374C12.5361 10.893 12.2591 11.3068 11.9098 11.6551L5.78233 17.7826C5.71225 17.8521 5.62914 17.9071 5.53776 17.9444C5.44638 17.9818 5.34854 18.0007 5.24983 18.0001Z" fill="white"/>
</g>
<defs>
<clipPath id="clip0_8_809">
<rect width="18" height="18" fill="white"/>
</clipPath>
</defs>
</svg>
