<svg width="16" height="16" viewBox="0 0 16 16" fill="none" xmlns="http://www.w3.org/2000/svg">
<g clip-path="url(#clip0_8_918)">
<path d="M0 15.3329V10.6663C0.00176457 9.07549 0.634472 7.5504 1.75931 6.42556C2.88414 5.30073 4.40924 4.66802 6 4.66626H9.22V3.60893C9.22006 3.34526 9.29829 3.08753 9.4448 2.86832C9.59131 2.6491 9.79953 2.47825 10.0431 2.37736C10.2867 2.27646 10.5548 2.25006 10.8134 2.30148C11.072 2.35291 11.3095 2.47985 11.496 2.66626L15.416 6.58559C15.7909 6.96064 16.0016 7.46926 16.0016 7.99959C16.0016 8.52991 15.7909 9.03853 15.416 9.41359L11.496 13.3329C11.3095 13.5193 11.072 13.6463 10.8134 13.6977C10.5548 13.7491 10.2867 13.7227 10.0431 13.6218C9.79953 13.5209 9.59131 13.3501 9.4448 13.1309C9.29829 12.9116 9.22006 12.6539 9.22 12.3902V11.3329H5.33333C4.27279 11.334 3.25599 11.7557 2.50608 12.5057C1.75616 13.2556 1.33439 14.2724 1.33333 15.3329C1.33333 15.5097 1.2631 15.6793 1.13807 15.8043C1.01305 15.9293 0.843478 15.9996 0.666667 15.9996C0.489856 15.9996 0.320286 15.9293 0.195262 15.8043C0.0702379 15.6793 0 15.5097 0 15.3329ZM10.5533 5.33292C10.5533 5.50973 10.4831 5.6793 10.3581 5.80433C10.233 5.92935 10.0635 5.99959 9.88667 5.99959H6C4.76276 6.001 3.57659 6.49312 2.70173 7.36798C1.82686 8.24284 1.33475 9.42901 1.33333 10.6663V11.8089C1.83305 11.2402 2.44833 10.7846 3.1381 10.4726C3.82788 10.1606 4.57627 9.99936 5.33333 9.99958H9.88667C10.0635 9.99958 10.233 10.0698 10.3581 10.1948C10.4831 10.3199 10.5533 10.4894 10.5533 10.6663V12.3902L14.4727 8.47092C14.5976 8.3459 14.6679 8.17636 14.6679 7.99959C14.6679 7.82281 14.5976 7.65327 14.4727 7.52825L10.5533 3.60893V5.33292Z" fill="white"/>
</g>
<defs>
<clipPath id="clip0_8_918">
<rect width="16" height="16" fill="white"/>
</clipPath>
</defs>
</svg>
