<svg width="36" height="36" viewBox="0 0 36 36" fill="none" xmlns="http://www.w3.org/2000/svg">
<g clip-path="url(#clip0_8_941)">
<path d="M33.6885 12.1502L23.3025 2.19617C21.895 0.803419 19.996 0.0203404 18.0159 0.0161303C16.0357 0.0119203 14.1334 0.786916 12.72 2.17367L2.31 12.1502C1.58192 12.8514 1.00224 13.6919 0.605413 14.6216C0.208583 15.5513 0.00270034 16.5513 0 17.5622L0 28.5002C0.00238179 30.4886 0.793323 32.3948 2.19933 33.8008C3.60534 35.2069 5.51161 35.9978 7.5 36.0002H28.5C30.4884 35.9978 32.3947 35.2069 33.8007 33.8008C35.2067 32.3948 35.9976 30.4886 36 28.5002V17.5622C35.9974 16.5512 35.7914 15.551 35.3943 14.6213C34.9971 13.6915 34.4171 12.8511 33.6885 12.1502V12.1502ZM14.8185 4.31717C15.6691 3.47417 16.8194 3.0032 18.017 3.0077C19.2145 3.0122 20.3613 3.4918 21.2055 4.34117L31.326 14.0372L21.1815 24.1832C20.324 25.0006 19.1847 25.4566 18 25.4566C16.8153 25.4566 15.676 25.0006 14.8185 24.1832L4.6725 14.0372L14.8185 4.31717ZM33 28.5002C33 29.6936 32.5259 30.8382 31.682 31.6822C30.8381 32.5261 29.6935 33.0002 28.5 33.0002H7.5C6.30653 33.0002 5.16193 32.5261 4.31802 31.6822C3.47411 30.8382 3 29.6936 3 28.5002V17.5622C3.00151 17.271 3.03115 16.9806 3.0885 16.6952L12.6975 26.3042C14.1086 27.7015 16.0142 28.4853 18 28.4853C19.9858 28.4853 21.8914 27.7015 23.3025 26.3042L32.9115 16.6952C32.9689 16.9806 32.9985 17.271 33 17.5622V28.5002Z" fill="white" fill-opacity="0.5"/>
</g>
<defs>
<clipPath id="clip0_8_941">
<rect width="36" height="36" fill="white"/>
</clipPath>
</defs>
</svg>
