<svg width="18" height="18" viewBox="0 0 18 18" fill="none" xmlns="http://www.w3.org/2000/svg">
<g clip-path="url(#clip0_8_808)">
<path d="M12.8774 18.0001C12.7787 18.0007 12.6809 17.9818 12.5895 17.9444C12.4981 17.9071 12.415 17.8521 12.3449 17.7826L6.21743 11.6551C5.8682 11.3068 5.59113 10.893 5.40208 10.4374C5.21303 9.98179 5.11572 9.49338 5.11572 9.00013C5.11572 8.50687 5.21303 8.01847 5.40208 7.56288C5.59113 7.10729 5.8682 6.69347 6.21743 6.34513L12.3449 0.217639C12.4149 0.14771 12.4979 0.0922394 12.5892 0.0543942C12.6806 0.016549 12.7785 -0.00292969 12.8774 -0.00292969C12.9763 -0.00292969 13.0742 0.016549 13.1656 0.0543942C13.257 0.0922394 13.34 0.14771 13.4099 0.217639C13.4799 0.287568 13.5353 0.370585 13.5732 0.461952C13.611 0.553318 13.6305 0.651244 13.6305 0.750138C13.6305 0.849032 13.611 0.946958 13.5732 1.03832C13.5353 1.12969 13.4799 1.21271 13.4099 1.28264L7.28243 7.41013C6.86107 7.83201 6.62441 8.40388 6.62441 9.00013C6.62441 9.59638 6.86107 10.1683 7.28243 10.5901L13.4099 16.7176C13.4802 16.7873 13.536 16.8703 13.5741 16.9617C13.6122 17.0531 13.6318 17.1511 13.6318 17.2501C13.6318 17.3491 13.6122 17.4472 13.5741 17.5386C13.536 17.6299 13.4802 17.7129 13.4099 17.7826C13.3398 17.8521 13.2567 17.9071 13.1654 17.9444C13.074 17.9818 12.9761 18.0007 12.8774 18.0001Z" fill="white" fill-opacity="0.2"/>
</g>
<defs>
<clipPath id="clip0_8_808">
<rect width="18" height="18" fill="white"/>
</clipPath>
</defs>
</svg>
